<svg xmlns="http://www.w3.org/2000/svg" xmlns:xlink="http://www.w3.org/1999/xlink" width="44" zoomAndPan="magnify" viewBox="0 0 33 38.999999" height="52" preserveAspectRatio="xMidYMid meet" version="1.0"><defs><clipPath id="df2b1d8587"><path d="M 3.300781 6.300781 L 12 6.300781 L 12 32.550781 L 3.300781 32.550781 Z M 3.300781 6.300781 " clip-rule="nonzero"/></clipPath><clipPath id="0d5caca25e"><path d="M 13 6.300781 L 29.550781 6.300781 L 29.550781 32.550781 L 13 32.550781 Z M 13 6.300781 " clip-rule="nonzero"/></clipPath></defs><g clip-path="url(#df2b1d8587)"><path fill="#171938" d="M 6.113281 6.300781 C 5.738281 6.300781 5.378906 6.371094 5.035156 6.515625 C 4.691406 6.65625 4.386719 6.859375 4.125 7.125 C 3.859375 7.386719 3.65625 7.691406 3.515625 8.035156 C 3.371094 8.378906 3.300781 8.738281 3.300781 9.113281 L 3.300781 29.738281 C 3.300781 30.109375 3.371094 30.46875 3.515625 30.8125 C 3.65625 31.160156 3.859375 31.460938 4.125 31.726562 C 4.386719 31.988281 4.691406 32.191406 5.035156 32.335938 C 5.378906 32.480469 5.738281 32.550781 6.113281 32.550781 L 11.738281 32.550781 L 11.738281 6.300781 Z M 6.113281 6.300781 " fill-opacity="1" fill-rule="nonzero"/></g><g clip-path="url(#0d5caca25e)"><path fill="#ebebeb" d="M 26.738281 6.300781 L 13.613281 6.300781 L 13.613281 32.550781 L 26.738281 32.550781 C 27.109375 32.550781 27.46875 32.480469 27.8125 32.335938 C 28.160156 32.191406 28.460938 31.988281 28.726562 31.726562 C 28.988281 31.460938 29.191406 31.160156 29.335938 30.8125 C 29.480469 30.46875 29.550781 30.109375 29.550781 29.738281 L 29.550781 9.113281 C 29.550781 8.738281 29.480469 8.378906 29.335938 8.035156 C 29.191406 7.691406 28.988281 7.386719 28.726562 7.125 C 28.460938 6.859375 28.160156 6.65625 27.8125 6.515625 C 27.46875 6.371094 27.109375 6.300781 26.738281 6.300781 Z M 26.738281 6.300781 " fill-opacity="1" fill-rule="nonzero"/></g></svg>