<svg xmlns="http://www.w3.org/2000/svg" xmlns:xlink="http://www.w3.org/1999/xlink" width="44" zoomAndPan="magnify" viewBox="0 0 33 38.999999" height="52" preserveAspectRatio="xMidYMid meet" version="1.0"><defs><clipPath id="39c272915e"><path d="M 3.441406 6.300781 L 29.691406 6.300781 L 29.691406 15 L 3.441406 15 Z M 3.441406 6.300781 " clip-rule="nonzero"/></clipPath><clipPath id="a18be967bf"><path d="M 3.441406 16 L 29.691406 16 L 29.691406 32.550781 L 3.441406 32.550781 Z M 3.441406 16 " clip-rule="nonzero"/></clipPath></defs><g clip-path="url(#39c272915e)"><path fill="#ebebeb" d="M 29.691406 9.113281 C 29.691406 8.738281 29.621094 8.378906 29.476562 8.035156 C 29.332031 7.691406 29.128906 7.386719 28.867188 7.125 C 28.601562 6.859375 28.300781 6.65625 27.953125 6.515625 C 27.609375 6.371094 27.25 6.300781 26.878906 6.300781 L 6.253906 6.300781 C 5.878906 6.300781 5.519531 6.371094 5.175781 6.515625 C 4.832031 6.65625 4.527344 6.859375 4.265625 7.125 C 4 7.386719 3.796875 7.691406 3.65625 8.035156 C 3.511719 8.378906 3.441406 8.738281 3.441406 9.113281 L 3.441406 14.738281 L 29.691406 14.738281 Z M 29.691406 9.113281 " fill-opacity="1" fill-rule="nonzero"/></g><g clip-path="url(#a18be967bf)"><path fill="#171938" d="M 29.691406 29.738281 L 29.691406 16.613281 L 3.441406 16.613281 L 3.441406 29.738281 C 3.441406 30.109375 3.511719 30.46875 3.65625 30.8125 C 3.796875 31.160156 4 31.460938 4.265625 31.726562 C 4.527344 31.988281 4.832031 32.191406 5.175781 32.335938 C 5.519531 32.480469 5.878906 32.550781 6.253906 32.550781 L 26.878906 32.550781 C 27.25 32.550781 27.609375 32.480469 27.953125 32.335938 C 28.300781 32.191406 28.601562 31.988281 28.867188 31.726562 C 29.128906 31.460938 29.332031 31.160156 29.476562 30.8125 C 29.621094 30.46875 29.691406 30.109375 29.691406 29.738281 Z M 29.691406 29.738281 " fill-opacity="1" fill-rule="nonzero"/></g></svg>