<svg xmlns="http://www.w3.org/2000/svg" xmlns:xlink="http://www.w3.org/1999/xlink" width="44" zoomAndPan="magnify" viewBox="0 0 33 38.999999" height="52" preserveAspectRatio="xMidYMid meet" version="1.0"><defs><clipPath id="3ef884daee"><path d="M 3.441406 24 L 29.691406 24 L 29.691406 32.550781 L 3.441406 32.550781 Z M 3.441406 24 " clip-rule="nonzero"/></clipPath><clipPath id="db60a74e8e"><path d="M 3.441406 6.441406 L 29.691406 6.441406 L 29.691406 23 L 3.441406 23 Z M 3.441406 6.441406 " clip-rule="nonzero"/></clipPath></defs><g clip-path="url(#3ef884daee)"><path fill="#ebebeb" d="M 29.691406 29.878906 C 29.691406 30.25 29.621094 30.609375 29.476562 30.953125 C 29.332031 31.300781 29.128906 31.601562 28.867188 31.867188 C 28.601562 32.128906 28.300781 32.332031 27.953125 32.476562 C 27.609375 32.621094 27.25 32.691406 26.878906 32.691406 L 6.253906 32.691406 C 5.878906 32.691406 5.519531 32.621094 5.175781 32.476562 C 4.832031 32.332031 4.527344 32.128906 4.265625 31.867188 C 4 31.601562 3.796875 31.300781 3.65625 30.953125 C 3.511719 30.609375 3.441406 30.25 3.441406 29.878906 L 3.441406 24.253906 L 29.691406 24.253906 Z M 29.691406 29.878906 " fill-opacity="1" fill-rule="nonzero"/></g><g clip-path="url(#db60a74e8e)"><path fill="#171938" d="M 29.691406 9.253906 L 29.691406 22.378906 L 3.441406 22.378906 L 3.441406 9.253906 C 3.441406 8.878906 3.511719 8.519531 3.65625 8.175781 C 3.796875 7.832031 4 7.527344 4.265625 7.265625 C 4.527344 7 4.832031 6.796875 5.175781 6.65625 C 5.519531 6.511719 5.878906 6.441406 6.253906 6.441406 L 26.878906 6.441406 C 27.25 6.441406 27.609375 6.511719 27.953125 6.65625 C 28.300781 6.796875 28.601562 7 28.867188 7.265625 C 29.128906 7.527344 29.332031 7.832031 29.476562 8.175781 C 29.621094 8.519531 29.691406 8.878906 29.691406 9.253906 Z M 29.691406 9.253906 " fill-opacity="1" fill-rule="nonzero"/></g></svg>